<svg width="732" height="395" viewBox="0 0 732 395" class="keymap" xmlns="http://www.w3.org/2000/svg" xmlns:xlink="http://www.w3.org/1999/xlink">
<style>:root {
    --fg-color: #24292e;
    --key-color: #f6f8fa;
    --outline-color: #c9cccf;
    --combo-color: #ccddff;
    --held-color: #ffdddd;
    --font-size: 14px;
    --small-font-size: 11px;
    --tiny-font-size: 8px;
    --dendron-color: #808080;
    --trans-fg-color: #7b7e81;
}

/* inherit to force styles through use tags */
svg path {
    fill: inherit;
}

/* font and background color specifications */
svg.keymap {
    font-family: SFMono-Regular,Consolas,Liberation Mono,Menlo,monospace;
    font-size: var(--font-size);
    font-kerning: normal;
    text-rendering: optimizeLegibility;
    fill: var(--fg-color);
}

/* default key styling */
rect.key {
    fill: var(--key-color);
}

rect.key, rect.combo {
    stroke: var(--outline-color);
    stroke-width: 1;
}

/* default key side styling, only used is draw_key_sides is set */
rect.side {
    filter: brightness(90%);
}

/* color accent for combo boxes */
rect.combo, rect.combo-separate {
    fill: var(--combo-color);
}

/* color accent for held keys */
rect.held, rect.combo.held {
    fill: var(--held-color);
}

/* styling for ghost (optional) keys */
rect.ghost, rect.combo.ghost {
    stroke-dasharray: 4, 4;
    stroke-width: 2;
}

text {
    text-anchor: middle;
    dominant-baseline: middle;
}

/* styling for layer labels */
text.label {
    font-weight: bold;
    text-anchor: start;
    stroke: white;
    stroke-width: 4;
    paint-order: stroke;
}

/* styling for optional footer */
text.footer {
    text-anchor: end;
    dominant-baseline: auto;
    stroke: white;
    stroke-width: 4;
    paint-order: stroke;
}

/* styling for combo tap, and key hold/shifted label text */
text.combo, text.hold, text.shifted {
    font-size: var(--small-font-size);
}

text.hold {
    text-anchor: middle;
    dominant-baseline: auto;
}

text.shifted {
    text-anchor: middle;
    dominant-baseline: hanging;
}

/* styling for hold/shifted label text in combo box */
text.combo.hold, text.combo.shifted {
    font-size: var(--tiny-font-size);
}

/* lighter symbol for transparent keys */
text.trans {
    fill: var(--trans-fg-color);
}

/* styling for combo dendrons */
path.combo {
    stroke-width: 1;
    stroke: var(--dendron-color);
    fill: none;
}

/* Start Tabler Icons Cleanup */
/* cannot use height/width with glyphs */
.icon-tabler > path {
    fill: inherit;
    stroke: inherit;
    stroke-width: 2;
}
/* hide tabler's default box */
.icon-tabler > path[stroke="none"][fill="none"] {
    visibility: hidden;
}
/* End Tabler Icons Cleanup */

@media (prefers-color-scheme: dark) {
:root {
    --fg-color: #d1d6db;
    --key-color: #3f4750;
    --outline-color: #60666c;
    --combo-color: #1f3d7a;
    --held-color: #854747;
    --trans-fg-color: #7e8184;
    --dendron-color: #7f7f7f;
}
text.label, text.footer { stroke: black; }

}</style>
<g transform="translate(30, 0)" class="layer-base">
<text x="0" y="28" class="label">base:</text>
<g transform="translate(0, 56)">
<g transform="translate(28, 81)" class="key keypos-0">
<rect rx="6" ry="6" x="-26" y="-26" width="52" height="52" class="key"/>
</g>
<g transform="translate(84, 46)" class="key keypos-1">
<rect rx="6" ry="6" x="-26" y="-26" width="52" height="52" class="key"/>
</g>
<g transform="translate(140, 28)" class="key keypos-2">
<rect rx="6" ry="6" x="-26" y="-26" width="52" height="52" class="key"/>
</g>
<g transform="translate(196, 44)" class="key keypos-3">
<rect rx="6" ry="6" x="-26" y="-26" width="52" height="52" class="key"/>
</g>
<g transform="translate(252, 52)" class="key keypos-4">
<rect rx="6" ry="6" x="-26" y="-26" width="52" height="52" class="key"/>
</g>
<g transform="translate(420, 52)" class="key keypos-5">
<rect rx="6" ry="6" x="-26" y="-26" width="52" height="52" class="key"/>
</g>
<g transform="translate(476, 44)" class="key keypos-6">
<rect rx="6" ry="6" x="-26" y="-26" width="52" height="52" class="key"/>
</g>
<g transform="translate(532, 28)" class="key keypos-7">
<rect rx="6" ry="6" x="-26" y="-26" width="52" height="52" class="key"/>
</g>
<g transform="translate(588, 46)" class="key keypos-8">
<rect rx="6" ry="6" x="-26" y="-26" width="52" height="52" class="key"/>
</g>
<g transform="translate(644, 81)" class="key keypos-9">
<rect rx="6" ry="6" x="-26" y="-26" width="52" height="52" class="key"/>
</g>
<g transform="translate(28, 137)" class="key keypos-10">
<rect rx="6" ry="6" x="-26" y="-26" width="52" height="52" class="key"/>
</g>
<g transform="translate(84, 102)" class="key keypos-11">
<rect rx="6" ry="6" x="-26" y="-26" width="52" height="52" class="key"/>
</g>
<g transform="translate(140, 84)" class="key keypos-12">
<rect rx="6" ry="6" x="-26" y="-26" width="52" height="52" class="key"/>
</g>
<g transform="translate(196, 100)" class="key keypos-13">
<rect rx="6" ry="6" x="-26" y="-26" width="52" height="52" class="key"/>
</g>
<g transform="translate(252, 108)" class="key keypos-14">
<rect rx="6" ry="6" x="-26" y="-26" width="52" height="52" class="key"/>
</g>
<g transform="translate(420, 108)" class="key keypos-15">
<rect rx="6" ry="6" x="-26" y="-26" width="52" height="52" class="key"/>
</g>
<g transform="translate(476, 100)" class="key keypos-16">
<rect rx="6" ry="6" x="-26" y="-26" width="52" height="52" class="key"/>
</g>
<g transform="translate(532, 84)" class="key keypos-17">
<rect rx="6" ry="6" x="-26" y="-26" width="52" height="52" class="key"/>
</g>
<g transform="translate(588, 102)" class="key keypos-18">
<rect rx="6" ry="6" x="-26" y="-26" width="52" height="52" class="key"/>
</g>
<g transform="translate(644, 137)" class="key keypos-19">
<rect rx="6" ry="6" x="-26" y="-26" width="52" height="52" class="key"/>
</g>
<g transform="translate(28, 193)" class="key keypos-20">
<rect rx="6" ry="6" x="-26" y="-26" width="52" height="52" class="key"/>
</g>
<g transform="translate(84, 158)" class="key keypos-21">
<rect rx="6" ry="6" x="-26" y="-26" width="52" height="52" class="key"/>
</g>
<g transform="translate(140, 140)" class="key keypos-22">
<rect rx="6" ry="6" x="-26" y="-26" width="52" height="52" class="key"/>
</g>
<g transform="translate(196, 156)" class="key keypos-23">
<rect rx="6" ry="6" x="-26" y="-26" width="52" height="52" class="key"/>
</g>
<g transform="translate(252, 164)" class="key keypos-24">
<rect rx="6" ry="6" x="-26" y="-26" width="52" height="52" class="key"/>
</g>
<g transform="translate(420, 164)" class="key keypos-25">
<rect rx="6" ry="6" x="-26" y="-26" width="52" height="52" class="key"/>
</g>
<g transform="translate(476, 156)" class="key keypos-26">
<rect rx="6" ry="6" x="-26" y="-26" width="52" height="52" class="key"/>
</g>
<g transform="translate(532, 140)" class="key keypos-27">
<rect rx="6" ry="6" x="-26" y="-26" width="52" height="52" class="key"/>
</g>
<g transform="translate(588, 158)" class="key keypos-28">
<rect rx="6" ry="6" x="-26" y="-26" width="52" height="52" class="key"/>
</g>
<g transform="translate(644, 193)" class="key keypos-29">
<rect rx="6" ry="6" x="-26" y="-26" width="52" height="52" class="key"/>
</g>
<g transform="translate(221, 221) rotate(15.0)" class="key keypos-30">
<rect rx="6" ry="6" x="-26" y="-26" width="52" height="52" class="key"/>
</g>
<g transform="translate(279, 245) rotate(30.0)" class="key keypos-31">
<rect rx="6" ry="6" x="-26" y="-26" width="52" height="52" class="key"/>
</g>
<g transform="translate(393, 245) rotate(-30.0)" class="key keypos-32">
<rect rx="6" ry="6" x="-26" y="-26" width="52" height="52" class="key"/>
</g>
<g transform="translate(451, 221) rotate(-15.0)" class="key keypos-33">
<rect rx="6" ry="6" x="-26" y="-26" width="52" height="52" class="key"/>
</g>
<g class="combo combopos-0">
<rect rx="6" ry="6" x="98" y="24" width="28" height="26" class="combo"/>
<text x="112" y="37" class="combo tap">ESC</text>
</g>
<g class="combo combopos-1">
<rect rx="6" ry="6" x="154" y="23" width="28" height="26" class="combo"/>
<text x="168" y="36" class="combo tap">RETURN</text>
</g>
<g class="combo combopos-2">
<path d="M140,45 l-37,1" class="combo"/>
<path d="M140,45 l37,-1" class="combo"/>
<rect rx="6" ry="6" x="126" y="32" width="28" height="26" class="combo"/>
<text x="140" y="45" class="combo tap"><tspan style="font-size: 64%">&amp;smart_mou…</tspan></text>
</g>
<g class="combo combopos-3">
<rect rx="6" ry="6" x="98" y="80" width="28" height="26" class="combo"/>
<text x="112" y="93" class="combo tap">TAB</text>
<text x="112" y="104" class="combo hold"><tspan style="font-size: 78%">Sft+ LALT</tspan></text>
</g>
<g class="combo combopos-4">
<rect rx="6" ry="6" x="154" y="79" width="28" height="26" class="combo"/>
<text x="168" y="92" class="combo tap"><tspan style="font-size: 64%">&amp;key_repeat</tspan></text>
<text x="168" y="103" class="combo hold"><tspan style="font-size: 70%">Sft+ LCTRL</tspan></text>
</g>
<g class="combo combopos-5">
<path d="M140,157 l-37,1" class="combo"/>
<path d="M140,157 l37,-1" class="combo"/>
<rect rx="6" ry="6" x="126" y="144" width="28" height="26" class="combo"/>
<text x="140" y="157" class="combo tap">
<tspan x="140" dy="-0.6em">Ctl+</tspan><tspan x="140" dy="1.2em">X</tspan>
</text>
</g>
<g class="combo combopos-6">
<rect rx="6" ry="6" x="98" y="136" width="28" height="26" class="combo"/>
<text x="112" y="149" class="combo tap">
<tspan x="112" dy="-0.6em">Ctl+</tspan><tspan x="112" dy="1.2em">INS</tspan>
</text>
</g>
<g class="combo combopos-7">
<rect rx="6" ry="6" x="154" y="135" width="28" height="26" class="combo"/>
<text x="168" y="148" class="combo tap">
<tspan x="168" dy="-0.6em">Sft+</tspan><tspan x="168" dy="1.2em">INS</tspan>
</text>
</g>
<g class="combo combopos-8">
<rect rx="6" ry="6" x="490" y="23" width="28" height="26" class="combo"/>
<text x="504" y="36" class="combo tap">BSPC</text>
</g>
<g class="combo combopos-9">
<rect rx="6" ry="6" x="546" y="24" width="28" height="26" class="combo"/>
<text x="560" y="37" class="combo tap">DEL</text>
</g>
<g class="combo combopos-10">
<rect rx="6" ry="6" x="490" y="79" width="28" height="26" class="combo"/>
<text x="504" y="92" class="combo tap">(</text>
<text x="504" y="103" class="combo hold"><tspan style="font-size: 70%">Sft+ LCTRL</tspan></text>
<text x="504" y="81" class="combo shifted">&lt;</text>
</g>
<g class="combo combopos-11">
<rect rx="6" ry="6" x="546" y="80" width="28" height="26" class="combo"/>
<text x="560" y="93" class="combo tap">)</text>
<text x="560" y="104" class="combo hold"><tspan style="font-size: 78%">Sft+ LALT</tspan></text>
<text x="560" y="82" class="combo shifted">&gt;</text>
</g>
<g class="combo combopos-12">
<rect rx="6" ry="6" x="490" y="135" width="28" height="26" class="combo"/>
<text x="504" y="148" class="combo tap">[</text>
</g>
<g class="combo combopos-13">
<rect rx="6" ry="6" x="546" y="136" width="28" height="26" class="combo"/>
<text x="560" y="149" class="combo tap">]</text>
</g>
<g class="combo combopos-14">
<path d="M532,45 l-37,-1" class="combo"/>
<path d="M532,45 l37,1" class="combo"/>
<rect rx="6" ry="6" x="518" y="32" width="28" height="26" class="combo"/>
<text x="532" y="45" class="combo tap">uc</text>
<text x="532" y="56" class="combo hold">sticky</text>
</g>
<g class="combo combopos-15">
<path d="M532,39 l-37,3" class="combo"/>
<path d="M532,39 l37,4" class="combo"/>
<rect rx="6" ry="6" x="518" y="26" width="28" height="26" class="combo"/>
<text x="532" y="39" class="combo tap"><tspan style="font-size: 78%">&amp;uc_shift</tspan></text>
<text x="532" y="50" class="combo hold">sticky</text>
</g>
<g class="combo combopos-16">
<rect rx="6" ry="6" x="70" y="61" width="28" height="26" class="combo"/>
<text x="84" y="74" class="combo tap">@</text>
</g>
<g class="combo combopos-17">
<rect rx="6" ry="6" x="126" y="43" width="28" height="26" class="combo"/>
<text x="140" y="56" class="combo tap">#</text>
</g>
<g class="combo combopos-18">
<rect rx="6" ry="6" x="182" y="59" width="28" height="26" class="combo"/>
<text x="196" y="72" class="combo tap">$</text>
</g>
<g class="combo combopos-19">
<rect rx="6" ry="6" x="238" y="67" width="28" height="26" class="combo"/>
<text x="252" y="80" class="combo tap">%</text>
</g>
<g class="combo combopos-20">
<rect rx="6" ry="6" x="70" y="117" width="28" height="26" class="combo"/>
<text x="84" y="130" class="combo tap">`</text>
</g>
<g class="combo combopos-21">
<rect rx="6" ry="6" x="126" y="99" width="28" height="26" class="combo"/>
<text x="140" y="112" class="combo tap">\</text>
</g>
<g class="combo combopos-22">
<rect rx="6" ry="6" x="182" y="115" width="28" height="26" class="combo"/>
<text x="196" y="128" class="combo tap">=</text>
</g>
<g class="combo combopos-23">
<rect rx="6" ry="6" x="238" y="123" width="28" height="26" class="combo"/>
<text x="252" y="136" class="combo tap">~</text>
</g>
<g class="combo combopos-24">
<rect rx="6" ry="6" x="406" y="67" width="28" height="26" class="combo"/>
<text x="420" y="80" class="combo tap">^</text>
</g>
<g class="combo combopos-25">
<rect rx="6" ry="6" x="462" y="59" width="28" height="26" class="combo"/>
<text x="476" y="72" class="combo tap">+</text>
</g>
<g class="combo combopos-26">
<rect rx="6" ry="6" x="518" y="43" width="28" height="26" class="combo"/>
<text x="532" y="56" class="combo tap">*</text>
</g>
<g class="combo combopos-27">
<rect rx="6" ry="6" x="574" y="61" width="28" height="26" class="combo"/>
<text x="588" y="74" class="combo tap">&amp;</text>
</g>
<g class="combo combopos-28">
<rect rx="6" ry="6" x="406" y="123" width="28" height="26" class="combo"/>
<text x="420" y="136" class="combo tap">_</text>
</g>
<g class="combo combopos-29">
<rect rx="6" ry="6" x="462" y="115" width="28" height="26" class="combo"/>
<text x="476" y="128" class="combo tap">-</text>
</g>
<g class="combo combopos-30">
<rect rx="6" ry="6" x="518" y="99" width="28" height="26" class="combo"/>
<text x="532" y="112" class="combo tap">/</text>
</g>
<g class="combo combopos-31">
<rect rx="6" ry="6" x="574" y="117" width="28" height="26" class="combo"/>
<text x="588" y="130" class="combo tap">|</text>
</g>
</g>
</g>
<text x="702.0" y="367.0" class="footer">urob/zmk-config</text></svg>
